PathFileType	4	(X/Y/Z)	N:\Shared_Data\Ergonomics\New Model Testing\10-03-21\SeatedStandsNonIsolatedGRFs.trc																																																																																																																																																							
DataRate	CameraRate	NumFrames	NumMarkers	Units	OrigDataRate	OrigDataStartFrame	OrigNumFrames	
100	100	4	51	m	100	2204	265
Frame#	Time	R_Knee_Med			R_Knee_Lat			R_Thigh_Upper			R_Thigh_Front			R_Thigh_Rear			L_Knee_Med			L_Knee_Lat			L_Thigh_Upper			L_Thigh_Front			L_Thigh_Rear			R_Ankle_Med			R_Ankle_Lat			R_Shank_Upper			R_Shank_Front			R_Shank_Rear			L_Ankle_Med			L_Ankle_Lat			L_Shank_Upper			L_Shank_Front			L_Shank_Rear			R_Heel			R_MTP1			R_MTP5			L_Heel			L_MTP1			L_MTP5			V_Sacral			R_Pelvis			L_Pelvis			Clavicle			Chest			R_Acromium			L_Acromium			R_Elbow			R_Arm_Parallel			R_Arm_Adjacent			L_Elbow			L_Arm_Parallel			L_Arm_Adjacent			R_Forearm2			R_Forearm1			R_Forearm_Base			L_Forearm2			L_Forearm1			L_Forearm_Base			R_Hand_Lower			R_Hand_Med			R_Hand_Lat			L_Hand_Lower			L_Hand_Med			L_Hand_Lat			
		X1	Y1	Z1	X2	Y2	Z2	X3	Y3	Z3	X4	Y4	Z4	X5	Y5	Z5	X6	Y6	Z6	X7	Y7	Z7	X8	Y8	Z8	X9	Y9	Z9	X10	Y10	Z10	X11	Y11	Z11	X12	Y12	Z12	X13	Y13	Z13	X14	Y14	Z14	X15	Y15	Z15	X16	Y16	Z16	X17	Y17	Z17	X18	Y18	Z18	X19	Y19	Z19	X20	Y20	Z20	X21	Y21	Z21	X22	Y22	Z22	X23	Y23	Z23	X24	Y24	Z24	X25	Y25	Z25	X26	Y26	Z26	X27	Y27	Z27	X28	Y28	Z28	X29	Y29	Z29	X30	Y30	Z30	X31	Y31	Z31	X32	Y32	Z32	X33	Y33	Z33	X34	Y34	Z34	X35	Y35	Z35	X36	Y36	Z36	X37	Y37	Z37	X38	Y38	Z38	X39	Y39	Z39	X40	Y40	Z40	X41	Y41	Z41	X42	Y42	Z42	X43	Y43	Z43	X44	Y44	Z44	X45	Y45	Z45	X46	Y46	Z46	X47	Y47	Z47	X48	Y48	Z48	X49	Y49	Z49	X50	Y50	Z50	X51	Y51	Z51	

2204	22.03	0.13946027	0.48258505	0.1094052	0.13578795	0.48486871	0.24701086	0.090700378	0.70438068	0.19713348	0.1642319	0.61445087	0.15948378	0.14045686	0.60060828	0.22832237	0.10713165	0.48864743	-0.1704538	0.058589752	0.51800946	-0.29696664	0.028707998	0.7181214	-0.20673682	0.10560509	0.62589661	-0.19741747	0.068945312	0.61653406	-0.26991763	0.087005203	0.092367981	0.16550134	0.041298981	0.078865662	0.2561001	0.16849973	0.34696335	0.21344467	0.13247052	0.23505215	0.18811461	0.11744911	0.23941794	0.24937584	0.069020874	0.10479287	-0.2568916	0.010200594	0.076982651	-0.34177051	0.11114882	0.34405203	-0.30177646	0.097249893	0.2279057	-0.27418021	0.055265945	0.24826711	-0.33185672	-0.007795886	0.049838566	0.19752971	0.20825972	0.055538383	0.22316623	0.15041573	0.02510948	0.28898709	-0.022396503	0.06179863	-0.29282864	0.16779999	0.059175739	-0.28480466	0.14745221	0.021132042	-0.36620285	-0.27565717	0.91068256	0.017950974	-0.077325027	0.85963818	0.20012088	-0.13301265	0.84502252	-0.17587485	0.37051978	0.97392334	-0.027474829	0.23532861	0.86465759	-0.020073486	0.32096463	1.0294105	0.14224982	0.28546454	1.0571455	-0.17485158	0.12260317	0.82435376	0.35755359	0.16991589	0.8873717	0.32867584	0.18795142	0.83543182	0.26221729	0.018797777	0.85105261	-0.35057913	0.08073703	0.90194653	-0.33830267	0.12882433	0.85230658	-0.29643649	0.14780188	0.74993988	0.28697772	0.077851761	0.64702069	0.31637286	0.026367136	0.56732227	0.33745398	0.060488499	0.73878857	-0.30951651	0.0096168289	0.66482306	-0.32450137	-0.038805443	0.59245221	-0.33430341	0.0058403912	0.52391815	0.34751794	0.023582396	0.47971915	0.31143472	-0.023372427	0.49074237	0.37169922	-0.054649757	0.54973254	-0.34529178	-0.040977337	0.50259048	-0.34509766	-0.076053596	0.52032776	-0.38134573
2205	22.04	0.13892659	0.48274371	0.10928508	0.13525677	0.48501324	0.24689746	0.0911632	0.7046825	0.19726956	0.16436142	0.6143822	0.15938475	0.14049571	0.60053888	0.22820224	0.10683911	0.48869913	-0.17006354	0.05816798	0.51803156	-0.29651489	0.029762777	0.71854999	-0.20692722	0.10595186	0.62581818	-0.19742096	0.069120247	0.61641107	-0.26988046	0.086845116	0.092336334	0.16551718	0.041245029	0.078847122	0.25618509	0.16807436	0.34717499	0.21334288	0.13214655	0.23519475	0.18805798	0.1172174	0.23954475	0.24933592	0.069017609	0.10481011	-0.25693887	0.010167627	0.076970848	-0.34184177	0.11071785	0.3441637	-0.3015419	0.097004166	0.22796301	-0.27407462	0.054999599	0.24830649	-0.33169385	-0.0078524036	0.049810841	0.19762231	0.20824455	0.055498497	0.22308127	0.15042845	0.02510729	0.28894669	-0.022393253	0.061728661	-0.2928732	0.16777972	0.059171883	-0.28483432	0.14744926	0.021121126	-0.36621497	-0.27442764	0.91283826	0.018075592	-0.076122131	0.86175348	0.20027284	-0.13149094	0.8473808	-0.17577133	0.37122006	0.97942401	-0.026908957	0.2363233	0.86958179	-0.019800306	0.32108136	1.0346261	0.14304047	0.28582413	1.0625873	-0.17417917	0.12309573	0.82936554	0.35820251	0.17008995	0.89237494	0.32934039	0.18883675	0.8403587	0.26322452	0.019063274	0.85632562	-0.35019669	0.080974525	0.90740588	-0.33776483	0.12942184	0.85776111	-0.29631284	0.14935738	0.75469312	0.28839682	0.079986732	0.65143097	0.31806812	0.02896822	0.57134375	0.33929794	0.061722507	0.74413287	-0.30956848	0.011271973	0.66989471	-0.32476126	-0.036787552	0.59724664	-0.33465082	0.0080578403	0.52759247	0.34945737	0.025373549	0.48288834	0.31373273	-0.021695192	0.49485532	0.37365872	-0.052573162	0.55435382	-0.34573215	-0.038620644	0.50707901	-0.34553214	-0.074756241	0.52504956	-0.38192389
2206	22.05	0.13844307	0.48289096	0.10917307	0.13476553	0.48514453	0.246793	0.091434128	0.70493146	0.19739891	0.16452068	0.6142959	0.1592771	0.14056216	0.60046521	0.22808214	0.10659032	0.48873895	-0.16966963	0.057803402	0.51804871	-0.29606934	0.030820129	0.71892041	-0.20712988	0.1063432	0.62572925	-0.1974248	0.069349304	0.61626648	-0.26985022	0.086696457	0.092307579	0.16552425	0.041193977	0.078829315	0.25625177	0.16767831	0.34737103	0.21324492	0.13184598	0.23532526	0.18800015	0.11700833	0.23966547	0.24929231	0.069006859	0.10481254	-0.25697812	0.010143689	0.076964569	-0.34190686	0.11032263	0.34426559	-0.30130133	0.09678019	0.22801227	-0.27395932	0.054757973	0.24834445	-0.33153009	-0.0079051147	0.049783657	0.19769833	0.20823325	0.055462559	0.22298872	0.15044281	0.025115824	0.28890314	-0.022385893	0.061672539	-0.29292108	0.16776875	0.059169693	-0.28486111	0.14744753	0.021112207	-0.36622751	-0.27321469	0.9148974	0.018164356	-0.074927917	0.86382031	0.20038252	-0.12997342	0.84967358	-0.17569925	0.37188989	0.98503186	-0.026340725	0.23729266	0.87459003	-0.019525137	0.32115112	1.0399877	0.14382343	0.28611118	1.0681469	-0.17353519	0.12359366	0.83449774	0.35891901	0.1702222	0.89753369	0.33003525	0.18980083	0.84539624	0.26435223	0.019249344	0.861659	-0.34981924	0.081114883	0.91293109	-0.33723978	0.12998637	0.8633158	-0.29628314	0.15093535	0.75957843	0.28989221	0.082127037	0.65599152	0.3197854	0.031584286	0.57550653	0.3411272	0.062958458	0.74955194	-0.30973877	0.012914041	0.67503735	-0.32510175	-0.034762005	0.60209406	-0.33499631	0.010371813	0.53154425	0.35148685	0.02712517	0.4862124	0.31595474	-0.019939192	0.49909692	0.37562207	-0.050502625	0.55897974	-0.34613507	-0.037029072	0.51185483	-0.34657224	-0.072768211	0.5293894	-0.38171729
2207	22.06	0.13799808	0.48303088	0.10907016	0.13430063	0.48526041	0.2466969	0.091609642	0.70515228	0.19752655	0.16470004	0.61420062	0.15916998	0.14064268	0.60039185	0.2279687	0.10636424	0.48877017	-0.16927051	0.057479462	0.51806342	-0.29563098	0.031871088	0.71923065	-0.20734694	0.10676752	0.6256286	-0.19742677	0.069620384	0.61610193	-0.26982349	0.086558617	0.092286865	0.16552711	0.041145565	0.078812233	0.25630771	0.16729683	0.34755261	0.21315588	0.13156592	0.23544656	0.18794537	0.11681279	0.23978105	0.24924954	0.068990288	0.10480553	-0.25700946	0.010125145	0.07696067	-0.3419631	0.1099505	0.34436035	-0.301056	0.096569832	0.22805598	-0.2738363	0.054531055	0.24838147	-0.33136453	-0.0079563932	0.049755894	0.19775986	0.20822316	0.055431557	0.22288875	0.15045811	0.02513343	0.28885724	-0.022379766	0.061634033	-0.29297995	0.16776399	0.059168056	-0.28488501	0.14744536	0.0211071	-0.36623935	-0.27201086	0.91688147	0.018221197	-0.07374353	0.86586163	0.20048564	-0.12846257	0.85191095	-0.1756537	0.37253784	0.99074603	-0.025770887	0.23823647	0.87968665	-0.019256065	0.32118491	1.0454824	0.144588	0.28633029	1.0738304	-0.17291782	0.12408829	0.83974054	0.35968463	0.17029347	0.90284039	0.3307464	0.19080226	0.85053625	0.26557239	0.019380356	0.86704889	-0.34941568	0.081178703	0.91852075	-0.33670645	0.1305416	0.86895538	-0.29633295	0.15250169	0.7645943	0.29141315	0.084259392	0.66068823	0.32148291	0.034205833	0.57980817	0.34292755	0.064194893	0.75503436	-0.31002679	0.014541984	0.680242	-0.32551511	-0.032730721	0.60699402	-0.33533536	0.012782192	0.53576331	0.35359183	0.028914646	0.48972046	0.31812054	-0.018080103	0.50346194	0.37758328	-0.048428074	0.56361115	-0.34648703	-0.036109058	0.51689807	-0.34810071	-0.070117088	0.5333877	-0.38081717
